<?xml version="1.0" standalone="no"?><!DOCTYPE svg PUBLIC "-//W3C//DTD SVG 1.1//EN" "http://www.w3.org/Graphics/SVG/1.1/DTD/svg11.dtd"><svg t="1503652574447" class="icon" style="" viewBox="0 0 1024 1024" version="1.1" xmlns="http://www.w3.org/2000/svg" p-id="1547" xmlns:xlink="http://www.w3.org/1999/xlink" width="64" height="64"><defs><style type="text/css"></style></defs><path d="M785.900158 385.48279l-14.251854-14.251854a20.311026 20.311026 0 0 0-28.589049 0L622.899908 491.048921 502.825902 371.230936a20.311026 20.311026 0 0 0-28.589049 0l-14.337195 14.251854a20.311026 20.311026 0 0 0 0 28.589049l120.074006 119.817985-119.476623 119.135261a20.311026 20.311026 0 0 0 0 28.58905l14.251855 14.337194a20.311026 20.311026 0 0 0 28.589049 0l119.476623-119.220601 119.476623 119.220601a20.311026 20.311026 0 0 0 28.589049 0l14.251854-14.337194a20.311026 20.311026 0 0 0 0-28.58905L665.655471 533.889824l120.074006-119.732644a20.055005 20.055005 0 0 0 0.170681-28.67439z m59.31161-229.139095l-387.018919 0.853405s-96.178682-9.302109-146.444203 43.608967L22.785899 489.768814c-28.162347 28.162347-29.442454 66.906909-1.365447 95.069256l292.035003 283.415618c38.232519 42.755563 143.115926 42.755563 143.115926 42.755563l388.555046 1.109426a177.849487 177.849487 0 0 0 177.849488-177.849488V334.193183a177.764147 177.764147 0 0 0-177.764147-177.849488z m111.113259 555.736978c0 71.941995-40.28069 133.387116-111.625302 133.387116-38.061838 0-365.171764-0.938745-365.171764-0.938745s-76.209017 9.131428-123.316943-43.523627L111.710643 578.693558C87.985999 555.736978 61.27444 546.690891 89.436786 512.04267L357.576465 266.176848c44.974415-44.974415 109.747812-43.096925 109.747812-43.096925h377.887491c64.176015 0 111.113259 63.578632 111.113259 133.387116v355.613634z" fill="#333333" p-id="1548"></path></svg>